<?xml version="1.0" standalone="no"?>
<!DOCTYPE svg PUBLIC "-//W3C//DTD SVG 20010904//EN"
 "http://www.w3.org/TR/2001/REC-SVG-20010904/DTD/svg10.dtd">
<svg version="1.0" xmlns="http://www.w3.org/2000/svg"
 width="209.000000pt" height="209.000000pt" viewBox="0 0 209.000000 209.000000"
 preserveAspectRatio="xMidYMid meet">
<metadata>
Created by potrace 1.11, written by Peter Selinger 2001-2013
</metadata>
<g transform="translate(0.000000,209.000000) scale(0.100000,-0.100000)"
fill="#000000" stroke="none">
<path d="M855 1930 c-110 -18 -164 -34 -262 -81 -60 -29 -192 -126 -223 -165
-62 -78 -84 -109 -114 -162 -52 -93 -86 -192 -105 -307 -8 -52 -8 -289 1 -335
27 -152 74 -267 158 -389 165 -239 428 -355 790 -346 270 6 456 75 618 230
151 143 231 335 232 558 l0 77 -27 1 c-27 0 -519 0 -578 -1 l-31 0 2 -97 c1
-54 2 -103 3 -109 1 -8 48 -11 152 -10 83 0 153 -2 155 -6 3 -4 -5 -35 -17
-70 -68 -203 -281 -339 -534 -341 -101 0 -142 5 -212 29 -181 61 -325 196
-387 364 -36 96 -47 154 -48 260 -1 118 7 177 37 265 26 74 52 123 103 190
117 156 279 228 492 220 144 -6 232 -32 338 -103 89 -58 176 -151 216 -229
l17 -33 109 0 110 0 1 38 c1 40 0 497 0 522 -1 13 -18 16 -108 15 l-108 0 -3
-93 c-1 -50 -5 -92 -7 -92 -3 0 -28 18 -57 40 -86 65 -223 129 -313 146 -11 2
-42 8 -68 13 -60 11 -265 12 -332 1z"/>
</g>
</svg>
